<?xml version="1.0" encoding="iso-8859-1"?>
<!-- Generator: Adobe Illustrator 18.1.1, SVG Export Plug-In . SVG Version: 6.00 Build 0)  -->
<svg version="1.1" id="Capa_1" xmlns="http://www.w3.org/2000/svg" xmlns:xlink="http://www.w3.org/1999/xlink" x="0px" y="0px"
	 viewBox="0 0 32.248 32.248" style="enable-background:new 0 0 32.248 32.248;" xml:space="preserve">
<g>
	<polygon points="2.215,23.014 2.215,8.826 14.404,8.826 16.703,6.541 0,6.541 0,25.304 8.008,25.304 8.873,23.014 	"/>
	<path d="M29.32,10.916V6.541h-8.586l-0.791,2.286h7.162v14.188H13.451l-2.357,2.289H29.32v-4.299c0.896,0,2.928,0.166,2.928-1.511
		v-6.782C32.248,10.688,30.096,10.916,29.32,10.916z"/>
	<polygon points="4.111,10.726 4.111,21.118 4.111,21.122 9.59,21.122 10.951,17.655 6.232,17.659 12.494,10.726 	"/>
	<polygon points="23.031,12.913 15.404,21.122 25.379,21.118 25.393,10.726 19.09,10.726 18.271,12.913 	"/>
	<polygon points="16.791,13.892 20.748,3.918 8.533,16.695 12.695,16.64 7.557,28.331 20.957,13.835 	"/>
</g>
</svg>
