<?xml version="1.0" encoding="UTF-8"?>
<svg width="256px" height="256px" viewBox="0 0 251 94" version="1.1" xmlns="http://www.w3.org/2000/svg"
    xmlns:xlink="http://www.w3.org/1999/xlink">
    <path
        d="M67.5446871,3.44625951 L67.9356871,3.94925951 L68.0476871,29.0632595 L67.8796871,29.3422595 C66.3736871,28.5612595 65.1456871,26.9982595 63.7506871,25.9392595 C58.0016871,21.5302595 50.5216871,19.2422595 42.9326871,21.3072595 C34.8956871,23.1492595 28.0316871,31.4632595 26.5796871,39.3332595 C24.3476871,49.8252595 27.2496871,60.2622595 35.5096871,66.9592595 C37.8536871,68.5222595 40.4766871,69.6942595 43.4346871,69.4722595 L44.0486871,68.8582595 L44.0486871,58.1972595 C47.6766871,59.3692595 51.0816871,61.1002595 54.8196871,62.1042595 C59.0606871,63.6662595 63.0806871,61.6022595 66.8756871,60.4292595 L67.9366871,60.4862595 L67.9366871,87.4422595 C66.4296871,88.6712595 64.3646871,89.1172595 62.4116871,89.6202595 C42.9326871,93.7502595 22.1156871,90.0102595 9.78168709,73.4912595 C-0.822312907,60.7102595 -3.44531291,39.6692595 5.09368709,25.1582595 C14.4146871,7.46625951 33.1666871,-1.29674049 53.0916871,0.155259514 C58.1126871,0.768259514 63.1356871,1.43725951 67.5446871,3.44625951 Z"
        fill="#e30421"></path>
    <path
        d="M147.745687,2.55425951 C154.776687,3.67025951 161.807687,4.95325951 167.223687,10.0882595 C174.813687,16.8982595 176.208687,28.0042595 173.752687,37.8252595 C171.910687,45.3602595 164.432687,52.4492595 156.842687,53.8992595 C156.340687,54.1232595 156.563687,54.7372595 156.674687,55.0712595 L173.250687,86.9382595 C173.306687,87.5522595 173.920687,87.8872595 173.752687,88.6132595 L173.139687,89.0592595 L146.517687,88.9492595 L145.737687,88.0542595 L132.229687,53.6752595 L120.901687,24.3202595 L113.088687,3.94925951 C112.864687,3.27925951 113.255687,2.49725951 113.982687,2.55325951 L147.745687,2.55425951 L147.745687,2.55425951 Z M133.959687,20.7482595 L133.848687,40.6162595 C138.984687,40.4492595 144.507687,41.3982595 148.246687,37.8822595 C150.869687,35.0912595 151.596687,30.6842595 150.310687,26.9442595 C147.576687,20.6922595 140.489687,20.2452595 133.959687,20.7482595 Z"
        fill="#e30421"></path>
    <path
        d="M243.850687,24.6552595 C251.830687,41.5652595 248.986687,64.8382595 236.539687,78.9022595 C224.985687,91.9072595 205.954687,95.7022595 189.935687,89.6192595 C176.373687,84.8192595 165.545687,70.8102595 163.090687,57.0812595 L163.368687,56.4672595 C174.640687,50.6082595 180.222687,38.8872595 179.163687,26.3292595 C178.827687,21.4752595 177.265687,17.1202595 175.424687,12.8792595 C175.926687,11.1502595 177.880687,10.2562595 179.163687,9.08325951 C191.608687,-0.793740486 212.538687,-2.80374049 226.156687,5.73525951 C233.861687,9.92025951 240.112687,17.0082595 243.850687,24.6552595 Z M211.201687,23.5392595 C204.615687,21.0832595 197.360687,23.1482595 192.616687,27.9482595 C185.752687,34.6452595 184.189687,45.2492595 186.977687,54.1772595 C188.764687,60.8202595 194.289687,68.2972595 201.490687,69.7482595 C207.462687,71.1442595 213.322687,69.1892595 217.562687,64.8362595 C224.761687,57.0242595 226.940687,44.9132595 222.752687,34.9792595 C220.912687,30.0122595 216.056687,25.5472595 211.201687,23.5392595 Z"
        fill="#e30421"></path>
    <path
        d="M107.560687,2.44125951 C109.067687,3.78125951 109.346687,5.95825951 110.127687,7.74325951 L138.870687,84.7062595 C139.204687,86.1022595 140.153687,87.4402595 139.763687,88.8362595 L138.983687,89.0602595 L116.601687,88.9502595 C115.374687,88.3362595 115.429687,86.8292595 114.759687,85.8242595 L110.630687,74.8862595 L109.960687,74.1602595 L79.9346871,74.0492595 C78.9306871,74.4402595 78.8186871,75.5002595 78.4276871,76.2812595 C76.8656871,79.8512595 75.4696871,83.5362595 73.7956871,87.0522595 L73.5706871,87.0522595 L73.6826871,26.3302595 L82.4456871,4.17425951 C82.7246871,3.44825951 82.9476871,2.49925951 83.8416871,2.33225951 L107.560687,2.44125951 Z M95.5056871,31.0732595 C95.1136871,30.9602595 95.2266871,31.2402595 95.0036871,31.3522595 L86.8546871,54.2902595 C86.8546871,54.8502595 86.4096871,55.4622595 86.8546871,55.9652595 L103.095687,56.0772595 C103.876687,56.1892595 103.765687,55.1842595 103.597687,54.7932595 L96.5656871,33.5852595 L95.5056871,31.0732595 Z"
        fill="#e30421"></path>
    <path
        d="M56.8846871,39.8352595 C61.3496871,40.8962595 64.5306871,37.9392595 67.6556871,35.3142595 L67.9346871,35.3142595 L67.9346871,55.0702595 C66.7066871,57.1342595 64.3076871,57.5822595 62.2436871,58.3072595 C51.9726871,59.6472595 44.7186871,52.1672595 34.7846871,52.2802595 C33.0546871,52.5032595 31.9366871,54.4012595 30.4866871,55.1822595 L30.2626871,54.9572595 L30.2626871,37.3772595 C31.9926871,35.4242595 34.5036871,35.0882595 36.9046871,34.5862595 C44.4946871,34.0872595 50.2436871,38.1052595 56.8846871,39.8352595 Z"
        fill="#e30421"></path>
    <path
        d="M238.328687,7.53525951 C238.328687,4.57025951 240.564687,2.33325951 243.431687,2.33325951 C246.264687,2.33325951 248.501687,4.57025951 248.501687,7.53525951 C248.501687,10.5512595 246.264687,12.7712595 243.431687,12.7712595 C240.565687,12.7712595 238.328687,10.5502595 238.328687,7.53525951 Z M243.430687,13.8142595 C246.843687,13.8142595 249.759687,11.1642595 249.759687,7.53525951 C249.759687,3.94025951 246.843687,1.29025951 243.430687,1.29025951 C239.986687,1.29025951 237.069687,3.94025951 237.069687,7.53525951 C237.069687,11.1642595 239.986687,13.8142595 243.430687,13.8142595 Z M242.106687,8.03225951 L243.366687,8.03225951 L245.269687,11.1632595 L246.497687,11.1632595 L244.442687,7.98225951 C245.503687,7.84925951 246.313687,7.28625951 246.313687,5.99425951 C246.313687,4.56925951 245.467687,3.94025951 243.762687,3.94025951 L241.011687,3.94025951 L241.011687,11.1642595 L242.106687,11.1642595 L242.106687,8.03225951 Z M242.106687,7.10425951 L242.106687,4.86725951 L243.596687,4.86725951 C244.359687,4.86725951 245.169687,5.03325951 245.169687,5.92825951 C245.169687,7.03825951 244.341687,7.10525951 243.413687,7.10525951 L242.106687,7.10525951 L242.106687,7.10425951 Z"
        fill="#000000"></path>
</svg>
