<?xml version="1.0" ?><!DOCTYPE svg  PUBLIC '-//W3C//DTD SVG 1.1//EN'  'http://www.w3.org/Graphics/SVG/1.1/DTD/svg11.dtd'><svg width="48px" height="48px" viewBox="0 0 48 48" enable-background="new 0 0 48 48" id="Layer_4" version="1.1" xml:space="preserve" xmlns="http://www.w3.org/2000/svg" xmlns:xlink="http://www.w3.org/1999/xlink"><g><path d="M17.582,32.729c0-4.076-3.304-7.38-7.38-7.38c-4.077,0-7.38,3.304-7.38,7.38   c0,0.08,0.011,0.156,0.013,0.236H2.629H2.054H0V48h20.403V32.966h-2.834C17.571,32.886,17.582,32.81,17.582,32.729z M12.328,43.38   h-4.14l1.028-2.589c-0.726-0.363-1.229-1.107-1.229-1.975c0-1.224,0.992-2.216,2.215-2.216s2.214,0.992,2.214,2.216   c0,0.857-0.49,1.592-1.203,1.96L12.328,43.38z M14.934,32.966H6.369h-0.9c-0.005-0.079-0.012-0.156-0.012-0.236   c0-2.62,2.124-4.744,4.745-4.744c2.62,0,4.744,2.124,4.744,4.744C14.946,32.81,14.938,32.887,14.934,32.966z" fill="#241F20"/><path d="M37.999,4V0h-4v4H14V0h-4v4H0v19.708h4V19.9h39.999V44H25.125h-0.917H23.25v4h0.958h0.917h22.874V4H37.999z    M43.999,15.9H4V8h6v4h4V8h20v4h4V8h6V15.9z" fill="#241F20"/></g></svg>